<svg xmlns="http://www.w3.org/2000/svg" viewBox="0 0 1024 166" width="1024" height="166">
	<style>
		tspan { white-space:pre }
		.shp0 { fill: #000000 } 
		.shp1 { fill: #ffffff } 
	</style>
	<g id="layer1">
		<g id="g2987">
			<path id="path2989" class="shp0" d="M957.94 0.37L957.94 33.4L924.9 33.4L891.87 33.4L858.84 33.4L825.81 33.4L792.77 33.4L759.74 33.4L759.74 66.44L726.71 66.44L726.71 99.47L693.68 99.47L693.68 132.5L660.65 132.5L660.65 165.53L627.61 165.53L594.58 165.53L561.55 165.53L528.52 165.53L495.48 165.53L462.45 165.53L462.45 132.5L429.42 132.5L429.42 99.47L396.39 99.47L396.39 66.44L363.35 66.44L330.32 66.44L330.32 99.47L297.29 99.47L297.29 132.5L264.26 132.5L231.23 132.5L198.19 132.5L165.16 132.5L132.13 132.5L99.1 132.5L66.06 132.5L66.06 99.47L33.03 99.47L33.03 66.44L0 66.44L0 33.4L0 0.37L33.03 0.37L66.06 0.37L99.1 0.37L132.13 0.37L165.16 0.37L198.19 0.37L231.23 0.37L264.26 0.37L297.29 0.37L330.32 0.37L363.35 0.37L396.39 0.37L429.42 0.37L462.45 0.37L495.48 0.37L528.52 0.37L561.55 0.37L594.58 0.37L627.61 0.37L660.65 0.37L693.68 0.37L726.71 0.37L759.74 0.37L792.77 0.37L825.81 0.37L858.84 0.37L891.87 0.37L924.9 0.37L957.94 0.37ZM957.94 33.4L990.97 33.4L1024 33.4L1024 66.44L990.97 66.44L957.94 66.44L957.94 33.4Z" />
			<path id="path2991" class="shp1" d="M693.68 33.4L693.68 66.44L660.65 66.44L660.65 33.4L693.68 33.4ZM660.65 66.44L660.65 99.47L627.61 99.47L627.61 66.44L660.65 66.44ZM627.61 66.44L594.58 66.44L594.58 33.4L627.61 33.4L627.61 66.44ZM594.58 66.44L594.58 99.47L561.55 99.47L561.55 66.44L594.58 66.44ZM561.55 99.47L561.55 132.5L528.52 132.5L528.52 99.47L561.55 99.47ZM594.58 99.47L627.61 99.47L627.61 132.5L594.58 132.5L594.58 99.47Z" />
			<path id="path2993" class="shp1" d="M297.29 33.4L264.26 33.4L264.26 66.44L231.23 66.44L231.23 33.4L198.19 33.4L198.19 66.44L165.16 66.44L165.16 99.47L198.19 99.47L198.19 66.44L231.23 66.44L231.23 99.47L264.26 99.47L264.26 66.44L297.29 66.44L297.29 33.4L297.29 33.4Z" />
		</g>
	</g>
</svg>